<?xml version="1.0" ?><!DOCTYPE svg  PUBLIC '-//W3C//DTD SVG 1.1//EN'  'http://www.w3.org/Graphics/SVG/1.1/DTD/svg11.dtd'><svg enable-background="new 0 0 91 91" height="91px" id="Layer_1" version="1.1" viewBox="0 0 91 91" width="91px" xml:space="preserve" xmlns="http://www.w3.org/2000/svg" xmlns:xlink="http://www.w3.org/1999/xlink"><g><path d="M64.501,41.728c-1.25-1.273-8.891-7.173-11.419-8.834c-5.48-3.601-11.287-6.697-16.801-10.254   c-2.157-1.392-5.14,0.428-5.092,2.922c0.183,9.706,0.502,35.322,0.532,38.427c0.012,1.336-0.168,2.985,0.227,4.291   c0.536,1.781,2.951,3.163,4.666,1.897c10.373-7.658,21.555-14.232,32.188-21.53C73.413,45.484,68.924,39.04,64.501,41.728z    M57.561,41.915c1.318,0.709,2.774,1.32,4.21,1.962c-7.582,6.152-15.566,11.869-23.577,17.474c0.024-2.582,0.044-5.167,0.059-7.748   c0.04-7.325,0.104-14.673-0.081-22.004c3.724,2.143,7.499,4.216,11.325,6.143C52.202,39.103,54.892,40.482,57.561,41.915z"/><path d="M43.832,1.828c-1.306-0.024-2.258,0.522-2.858,1.324C23.948,2.786,8.145,17.341,2.613,32.554   c-5.956,16.386-0.171,35.66,13.032,46.847c15,12.713,38.843,12.363,55.442,2.746c15.495-8.975,22.427-27.884,18.616-45.062   C85.055,16.132,64.714,2.198,43.832,1.828z M72.647,73.931c-12.785,10.559-35.526,12.845-49.669,3.923   C10.44,69.939,3.125,53.892,5.967,39.257c1.684-8.655,6.466-16.264,12.821-22.276c6.201-5.863,13.53-9.047,21.424-11.71   c-0.139,1.995,1.066,4.105,3.62,4.08c15.842-0.167,31.835,8.737,38.295,23.559C88.088,46.589,84.224,64.371,72.647,73.931z"/></g></svg>